<?xml version="1.0" encoding="utf-8"?>
<!-- Generator: Adobe Illustrator 16.0.3, SVG Export Plug-In . SVG Version: 6.00 Build 0)  -->
<!DOCTYPE svg PUBLIC "-//W3C//DTD SVG 1.1//EN" "http://www.w3.org/Graphics/SVG/1.1/DTD/svg11.dtd">
<svg version="1.1" id="Layer_1" xmlns="http://www.w3.org/2000/svg" xmlns:xlink="http://www.w3.org/1999/xlink" x="0px" y="0px"
	 width="120px" height="120px" viewBox="0 0 120 120" enable-background="new 0 0 120 120" xml:space="preserve">
<g>
	<path fill="#47848F" d="M46.09,30.841c-13.395-2.473-23.973,0.137-28.232,7.418c-3.16,5.427-2.267,12.708,2.198,20.401
		c0.343,0.688,1.237,0.893,1.854,0.481c0.688-0.343,0.893-1.237,0.481-1.854c-3.984-6.938-4.74-13.189-2.198-17.654
		c3.503-6.045,12.982-8.38,25.347-6.114c0.756,0.138,1.442-0.343,1.58-1.099C47.258,31.665,46.846,30.978,46.09,30.841z
		 M27.063,68.071c5.427,5.976,12.433,11.541,20.47,16.143c19.44,11.196,40.116,14.22,50.35,7.281
		c0.619-0.412,0.756-1.306,0.344-1.924s-1.306-0.755-1.923-0.344c-9.137,6.251-28.782,3.366-47.397-7.35
		c-7.762-4.464-14.631-9.891-19.852-15.662c-0.48-0.549-1.374-0.617-1.923-0.068C26.582,66.628,26.513,67.521,27.063,68.071z"/>
	<path fill="#47848F" d="M94.586,66.422c8.792-10.372,11.814-20.813,7.625-28.094c-3.092-5.358-9.686-8.174-18.341-8.312
		c-0.756,0-1.373,0.618-1.373,1.374s0.617,1.374,1.373,1.374c7.831,0.069,13.463,2.542,16.005,6.938
		c3.503,6.045,0.756,15.387-7.35,24.935c-0.48,0.55-0.412,1.442,0.138,1.923C93.212,67.04,94.105,66.973,94.586,66.422
		L94.586,66.422z M72.055,31.253c-7.898,1.717-16.348,5.014-24.454,9.686C27.475,52.547,14.423,69.651,16.209,82.017
		c0.137,0.754,0.824,1.235,1.58,1.167c0.756-0.139,1.236-0.825,1.167-1.58C17.309,70.612,29.742,54.47,48.975,43.343
		c7.899-4.534,16.074-7.762,23.699-9.411c0.756-0.138,1.236-0.894,1.03-1.649C73.497,31.596,72.811,31.115,72.055,31.253z"/>
	<path fill="#47848F" d="M39.564,90.603c4.603,12.775,12.09,20.675,20.539,20.675c6.182,0,11.815-4.189,16.28-11.608
		c0.412-0.619,0.206-1.512-0.481-1.854c-0.617-0.412-1.51-0.206-1.854,0.48c-3.983,6.663-8.86,10.235-13.944,10.235
		c-7.006,0-13.669-7.006-17.928-18.891c-0.275-0.687-1.031-1.1-1.786-0.823C39.633,89.091,39.29,89.915,39.564,90.603L39.564,90.603
		z M81.466,88.128c2.404-7.555,3.641-16.347,3.641-25.483c0-22.737-7.968-42.382-19.302-47.397c-0.687-0.274-1.511,0-1.787,0.687
		c-0.274,0.687,0,1.511,0.688,1.786c10.098,4.465,17.653,23.08,17.653,44.924c0,8.862-1.236,17.31-3.503,24.66
		c-0.206,0.755,0.206,1.512,0.894,1.718C80.436,89.228,81.191,88.816,81.466,88.128L81.466,88.128z M107.294,86.755
		c0-3.64-2.954-6.595-6.595-6.595s-6.594,2.955-6.594,6.595c0,3.641,2.954,6.594,6.594,6.594
		C104.409,93.349,107.294,90.396,107.294,86.755z M104.546,86.755c0,2.13-1.718,3.848-3.847,3.848c-2.13,0-3.847-1.718-3.847-3.848
		c0-2.128,1.717-3.846,3.847-3.846C102.828,82.909,104.546,84.627,104.546,86.755z M19.3,93.349c3.641,0,6.595-2.953,6.595-6.594
		c0-3.64-2.954-6.595-6.595-6.595c-3.64,0-6.594,2.955-6.594,6.595C12.707,90.396,15.66,93.349,19.3,93.349z M19.3,90.603
		c-2.129,0-3.846-1.718-3.846-3.848c0-2.128,1.717-3.846,3.846-3.846c2.13,0,3.847,1.718,3.847,3.846
		C23.147,88.885,21.43,90.603,19.3,90.603z"/>
	<path fill="#47848F" d="M60.103,21.911c3.64,0,6.594-2.954,6.594-6.594s-2.954-6.594-6.594-6.594c-3.641,0-6.595,2.954-6.595,6.594
		S56.462,21.911,60.103,21.911z M60.103,19.163c-2.129,0-3.847-1.717-3.847-3.847c0-2.129,1.717-3.847,3.847-3.847
		s3.846,1.718,3.846,3.847C63.949,17.446,62.164,19.163,60.103,19.163z M61.064,67.314c-2.542,0.551-5.083-1.099-5.633-3.639
		c-0.549-2.543,1.1-5.083,3.641-5.633c2.541-0.549,5.083,1.099,5.632,3.641C65.255,64.224,63.676,66.767,61.064,67.314
		L61.064,67.314z"/>
</g>
</svg>
