<?xml version="1.0" encoding="utf-8"?>
<!-- Generator: Adobe Illustrator 16.0.3, SVG Export Plug-In . SVG Version: 6.00 Build 0)  -->
<!DOCTYPE svg PUBLIC "-//W3C//DTD SVG 1.1//EN" "http://www.w3.org/Graphics/SVG/1.1/DTD/svg11.dtd">
<svg version="1.1" id="Layer_1" xmlns="http://www.w3.org/2000/svg" xmlns:xlink="http://www.w3.org/1999/xlink" x="0px" y="0px"
	 width="120px" height="120px" viewBox="0 0 120 120" enable-background="new 0 0 120 120" xml:space="preserve">
<g id="Layer_1_1_">
	<g>
		<g>
			<polygon fill="#FFFFFF" stroke="#464646" stroke-width="3.0452" stroke-miterlimit="10" points="59.983,108.25 18.205,84.111 
				18.22,35.859 60.016,11.75 101.795,35.889 101.776,84.144 			"/>
			<polygon fill="#FFFFFF" stroke="#464646" stroke-width="3.0452" stroke-miterlimit="10" points="18.224,35.859 18.224,35.873 
				59.986,59.999 101.778,35.891 101.778,35.877 60.018,11.75 			"/>
			<polygon fill="#FFFFFF" stroke="#464646" stroke-width="3.0452" stroke-miterlimit="10" points="18.216,35.874 18.205,35.88 
				19.017,84.104 61.202,107.524 61.209,107.518 60.399,59.296 			"/>
		</g>
		<g>
			<polygon fill="#5A69A4" stroke="#FFFFFF" stroke-width="3.0452" stroke-miterlimit="10" points="59.991,86.382 37.148,73.185 
				37.157,46.801 60.009,33.616 82.854,46.816 82.844,73.201 			"/>
			<polygon fill="#5A69A4" stroke="#FFFFFF" stroke-width="3.0452" stroke-miterlimit="10" points="37.157,46.801 37.157,46.807 
				59.991,59.999 82.844,46.817 82.844,46.811 60.009,33.616 			"/>
			<polygon fill="#5A69A4" stroke="#FFFFFF" stroke-width="3.0452" stroke-miterlimit="10" points="37.154,46.808 37.148,46.812 
				37.592,73.182 60.658,85.986 60.664,85.984 60.219,59.614 			"/>
		</g>
	</g>
</g>
</svg>
