<?xml version="1.0" encoding="utf-8"?>
<!-- Generator: Adobe Illustrator 16.0.3, SVG Export Plug-In . SVG Version: 6.00 Build 0)  -->
<!DOCTYPE svg PUBLIC "-//W3C//DTD SVG 1.1//EN" "http://www.w3.org/Graphics/SVG/1.1/DTD/svg11.dtd">
<svg version="1.1" id="Layer_1" xmlns="http://www.w3.org/2000/svg" xmlns:xlink="http://www.w3.org/1999/xlink" x="0px" y="0px"
	 width="120px" height="120px" viewBox="0 0 120 120" enable-background="new 0 0 120 120" xml:space="preserve">
<g>
	<path fill="#F37022" d="M106.421,60.084c0.275,24.895-20.487,46.394-47.201,45.985c-25.24-0.384-45.684-20.912-45.645-46.154
		c0.039-25.034,20.425-46.059,46.532-45.99C86.543,13.994,106.747,35.362,106.421,60.084z M59.572,75.956
		c-3.51-0.397-7.455-0.692-11.343-1.333c-2.859-0.47-4.91-2.259-5.898-5.065c-1.481-4.202-1.534-8.576-1.202-12.923
		c0.328-4.293,0.997-8.561,1.539-12.837c0.134-1.057-0.159-1.68-1.315-1.826c-1.663-0.211-3.315-0.505-4.969-0.778
		c-1.271-0.209-1.761,0.108-1.983,1.406c-0.441,2.556-0.926,5.108-1.263,7.678c-0.859,6.526-1.116,13.068,0.072,19.583
		c0.946,5.195,3.408,9.361,8.443,11.614c3.48,1.56,7.201,2.132,10.947,2.425c6.149,0.482,12.303,0.487,18.428-0.43
		c3.181-0.476,6.268-1.233,9.064-2.912c4.664-2.803,6.287-7.337,7.028-12.36c0.723-4.896,0.65-9.821,0.159-14.718
		c-0.373-3.728-1.084-7.422-1.683-11.126c-0.147-0.913-0.698-1.396-1.708-1.217c-1.611,0.283-3.234,0.511-4.846,0.792
		c-1.706,0.299-1.872,0.607-1.556,2.345c1.33,7.305,2.071,14.634,1.095,22.06c-0.664,5.038-3.062,7.79-8.06,8.57
		C67.063,75.442,63.54,75.59,59.572,75.956z"/>
	<path fill="#FFFFFF" d="M59.572,75.956c3.968-0.366,7.49-0.514,10.951-1.053c4.997-0.779,7.396-3.53,8.059-8.57
		c0.978-7.424,0.235-14.755-1.094-22.06c-0.317-1.737-0.151-2.046,1.556-2.345c1.612-0.282,3.234-0.509,4.845-0.792
		c1.012-0.178,1.563,0.305,1.71,1.217c0.597,3.704,1.308,7.398,1.682,11.126c0.491,4.897,0.564,9.821-0.158,14.718
		c-0.741,5.023-2.365,9.558-7.03,12.36c-2.797,1.679-5.883,2.437-9.064,2.912C64.903,84.388,58.75,84.383,52.6,83.9
		c-3.747-0.293-7.466-0.865-10.947-2.425c-5.036-2.253-7.498-6.419-8.443-11.614c-1.188-6.515-0.931-13.056-0.072-19.583
		c0.338-2.57,0.822-5.122,1.263-7.678c0.224-1.297,0.712-1.615,1.984-1.406c1.654,0.272,3.307,0.566,4.969,0.778
		c1.155,0.146,1.448,0.77,1.314,1.826c-0.542,4.276-1.21,8.544-1.538,12.837c-0.332,4.347-0.279,8.721,1.201,12.923
		c0.99,2.807,3.04,4.594,5.899,5.065C52.118,75.264,56.063,75.559,59.572,75.956z"/>
</g>
</svg>
