<?xml version="1.0" encoding="utf-8"?>
<!-- Generator: Adobe Illustrator 16.0.3, SVG Export Plug-In . SVG Version: 6.00 Build 0)  -->
<!DOCTYPE svg PUBLIC "-//W3C//DTD SVG 1.1//EN" "http://www.w3.org/Graphics/SVG/1.1/DTD/svg11.dtd">
<svg version="1.1" id="Layer_1" xmlns="http://www.w3.org/2000/svg" xmlns:xlink="http://www.w3.org/1999/xlink" x="0px" y="0px"
	 width="120px" height="120px" viewBox="0 0 120 120" enable-background="new 0 0 120 120" xml:space="preserve">
<path fill-rule="evenodd" clip-rule="evenodd" fill="#662D91" d="M43.254,66.6c-1.205,0.916-2.387,1.813-3.568,2.711
	c-8.079,6.152-16.162,12.302-24.231,18.466c-0.354,0.271-0.604,0.289-0.991,0.089c-1.67-0.867-3.356-1.706-5.043-2.534
	c-0.34-0.167-0.482-0.348-0.482-0.755c0.015-16.368,0.017-32.737,0.011-49.107c-0.002-0.362,0.098-0.565,0.436-0.732
	c1.744-0.854,3.48-1.725,5.203-2.619c0.36-0.188,0.591-0.133,0.897,0.1c9.068,6.917,18.142,13.827,27.214,20.736
	c0.203,0.156,0.407,0.304,0.651,0.486c0.835-0.807,1.646-1.588,2.451-2.373C60.298,36.945,74.795,22.823,89.28,8.692
	c0.325-0.317,0.588-0.348,0.989-0.187c6.74,2.716,13.487,5.424,20.237,8.117c0.414,0.165,0.55,0.37,0.55,0.82
	c-0.01,28.394-0.008,56.786,0.006,85.18c0.001,0.424-0.132,0.609-0.521,0.764c-6.771,2.691-13.537,5.396-20.297,8.114
	c-0.393,0.158-0.621,0.111-0.92-0.18C77.05,99.385,64.764,87.458,52.48,75.531c-2.904-2.82-5.808-5.64-8.713-8.459
	C43.613,66.923,43.449,66.78,43.254,66.6z M86.155,79.681c0-13.152,0-26.197,0-39.346c-8.781,6.564-17.474,13.064-26.214,19.599
	C68.719,66.545,77.406,73.091,86.155,79.681z M18.102,71.841c4.434-4.02,8.75-7.933,13.126-11.9
	c-4.368-3.901-8.704-7.771-13.126-11.721C18.102,56.14,18.102,63.917,18.102,71.841z"/>
</svg>
