<?xml version="1.0" encoding="utf-8"?>
<!-- Generator: Adobe Illustrator 16.0.3, SVG Export Plug-In . SVG Version: 6.00 Build 0)  -->
<!DOCTYPE svg PUBLIC "-//W3C//DTD SVG 1.1//EN" "http://www.w3.org/Graphics/SVG/1.1/DTD/svg11.dtd">
<svg version="1.1" id="Layer_1" xmlns="http://www.w3.org/2000/svg" xmlns:xlink="http://www.w3.org/1999/xlink" x="0px" y="0px"
	 width="120px" height="120px" viewBox="0 0 120 120" enable-background="new 0 0 120 120" xml:space="preserve">
<g>
	<linearGradient id="SVGID_1_" gradientUnits="userSpaceOnUse" x1="105.3184" y1="107.8037" x2="17.0448" y2="14.6885">
		<stop  offset="0" style="stop-color:#B42025"/>
		<stop  offset="1" style="stop-color:#D42027"/>
	</linearGradient>
	<rect x="10.592" y="11.75" fill="url(#SVGID_1_)" width="98.816" height="96.5"/>
	<path fill-rule="evenodd" clip-rule="evenodd" fill="#FFFFFF" d="M79.621,41.974c1.593-0.552,3.371-0.858,5.456-0.858V28.67
		c-8.951,0-16.124,3.372-21.581,10.178c-1.9,2.391-3.802,5.395-5.396,9.074l-4.046,9.871c-1.41,3.986-2.637,6.929-3.618,8.89
		c-1.288,2.821-2.514,5.028-3.739,6.622c-1.533,1.901-3.127,3.188-4.905,4.047c-1.962,0.92-4.231,1.41-6.867,1.41V91.33
		c8.951,0,16.125-3.434,21.582-10.178c1.533-2.023,3.005-4.353,4.415-7.112l3.434-7.848h14.407V53.685h-9.503
		c0.921-2.085,1.84-3.863,2.821-5.396c1.04-1.594,2.146-2.943,3.311-3.863C76.679,43.324,78.025,42.526,79.621,41.974L79.621,41.974
		z"/>
</g>
</svg>
