<?xml version="1.0" encoding="utf-8"?>
<!-- Generator: Adobe Illustrator 16.0.3, SVG Export Plug-In . SVG Version: 6.00 Build 0)  -->
<!DOCTYPE svg PUBLIC "-//W3C//DTD SVG 1.1//EN" "http://www.w3.org/Graphics/SVG/1.1/DTD/svg11.dtd">
<svg version="1.1" id="Layer_1" xmlns="http://www.w3.org/2000/svg" xmlns:xlink="http://www.w3.org/1999/xlink" x="0px" y="0px"
	 width="120px" height="120px" viewBox="0 0 120 120" enable-background="new 0 0 120 120" xml:space="preserve">
<g>
	<g>
		<path fill="#116BAF" d="M7.215,53.424l0.088-0.287c-0.049,0,0.388-0.672,0.339-0.672c-3.204,3.1-2.926,7.251-1.385,10.235
			c1.074,2.081,3.041,4.029,5.379,5.08c1.083,0.485,2.742,0.932,4.482,0.896c3.723-0.078,6.333-1.838,7.807-4.706l0.087-0.226
			c-1.3,1.311-3.419,2.222-5.081,2.391C12.019,66.845,4.906,60.651,7.215,53.424z"/>
		<path fill="#116BAF" d="M16.392,54.482c0.914,1.468,2.657,2.76,5.379,2.18c0.688-0.147,2.244-1.318,2.515-1.938
			c-2.333,1.588-3.782,1.056-4.467,0.854c-0.151-0.043-0.5-0.2-0.827-0.396c-0.723-0.435-1.08-0.633-1.644-1.452
			c-0.309-0.45-0.618-1.165-0.72-1.573c-0.167-0.677-0.121-1.718,0.197-2.615c-1.056,0.943-1.219,2.764-0.865,3.968
			C16.005,53.664,16.256,54.263,16.392,54.482z"/>
		<path fill="#116BAF" d="M17.139,62.251c3.655,0.489,6.38-1.047,7.321-3.436c-1.076,1.142-2.893,1.955-4.632,1.943
			c-3.889-0.025-8.259-3.51-7.769-8.367c0.042-0.418,0.209-1.074,0.657-1.924c-1.289,1.625-2.072,2.966-1.853,5.211
			C11.164,58.763,14.079,61.843,17.139,62.251z"/>
	</g>
	<g>
		<path fill="#FFFFFF" d="M110.247,49.377l-6.6,9.14l-0.598-2.391h-4.332c0,0,0.43,2.176,0.746,3.287
			c0.314,1.098,0.873,2.191,0.896,3.287c0.027,1.253-0.629,3.606-0.629,3.606l4.215-0.021c0,0,0.454-2.258,0.896-3.287
			c0.175-0.41,0.521-0.74,0.747-1.047c0.699-0.945,9.264-12.55,9.264-12.55L110.247,49.377z"/>
		<path fill="#FFFFFF" d="M101.525,51.824c-0.927-0.557-3.13-0.316-5.014-0.316h-2.917c-1.828,0-2.91-0.121-3.095,0.584
			c-0.57,2.179-2.988,14.194-2.988,14.194h3.885l2.539-11.057h2.093c2.42,0,6.868-0.066,6.868-0.066S102.375,52.337,101.525,51.824z
			"/>
		<path fill="#FFFFFF" d="M86.652,53c-0.814-1.135-2.482-1.53-3.586-1.644c-2.933-0.3-5.374,0.484-6.723,1.494
			c-0.409,0.305-0.748,0.55-1.047,0.896c-0.107,0.125-0.224,0.266-0.323,0.411c-0.087,0.123-0.19,0.207-0.274,0.336
			c-0.124,0.188-0.255,0.544-0.41,0.859c-0.124,0.253-0.242,0.55-0.337,0.785c-0.81,2.023-1.636,5.799-0.896,7.77
			c0.109,0.291,0.353,0.661,0.437,0.772c0.104,0.141,0.2,0.304,0.311,0.423c0.405,0.436,1.004,0.744,1.645,0.896
			c3.236,0.772,9.711,0.447,9.711,0.447l0.793-3.514c0,0-4.581,0.206-6.77-0.071c-0.327-0.042-1.238-0.088-1.706-0.498
			c-0.406-0.355-0.887-1.196-0.534-1.743c0.249-0.39,1.253-0.273,2.092-0.298c2.695-0.083,7.619,0,7.619,0s0.942-4.193,0.448-5.977
			C86.978,53.905,86.87,53.303,86.652,53z M83.44,57.209l-5.79-0.038c0,0-0.066-2.5,3.31-2.395c1.194,0.038,1.615,0.2,2.069,0.901
			C83.561,56.499,83.44,57.209,83.44,57.209z"/>
		<path fill="#FFFFFF" d="M69.283,51.494L66.594,62.7c0,0-1.488,0.01-1.942,0c-1.434-0.032-1.904-0.08-2.241-0.748
			c-0.354-0.7-0.015-1.592,0.149-2.539c0.459-2.645,1.562-7.941,1.562-7.941l-3.903,0.036c0,0-0.743,3.402-1.095,5.066
			c-0.499,2.352-1.561,5.814-0.448,7.919c1.147,2.168,3.845,1.793,6.873,1.793h4.333c1.07-4.856,3.169-14.814,3.169-14.814
			L69.283,51.494z"/>
		<path fill="#FFFFFF" d="M56.882,53.138c-0.229-1.67-1.319-3.486-2.514-4.246c-0.049-0.03-0.263-0.2-0.324-0.236
			c-0.885-0.512-2.301-0.944-3.287-1.046c-5.084-0.521-8.117,1.738-9.861,4.781c-0.686,1.195-1.141,2.501-1.495,3.885
			c-0.391,1.532-0.672,3.391-0.448,5.079c0.135,1.012,0.69,2.449,1.495,3.287c1.979,2.063,5.861,1.793,10.01,1.793
			c1.271,0,4.321-0.024,5.241-0.049c0.297-0.009,1.151-3.481,1.074-3.593c-0.073-0.087-1.089,0.034-2.248-0.071
			C55.661,59.719,57.313,56.267,56.882,53.138z M51.653,58.666C51.276,60,50.906,61.35,50.458,62.55
			c-3.02-0.017-5.824,0.395-6.723-1.493c-0.508-1.068-0.28-2.515,0-3.884c0.375-1.846,0.733-3.186,1.793-4.333
			c0.818-0.886,2.879-1.972,5.08-1.195c0.731,0.259,1.863,1.488,1.942,2.839C52.623,55.745,52.047,57.265,51.653,58.666z"/>
		<path fill="#FFFFFF" d="M33.574,55.08h4.183c0.265-1.13,0.516-2.425,0.767-3.568c-1.47,0-2.715-0.018-4.053-0.018
			C34.146,52.583,33.898,53.828,33.574,55.08z"/>
		<path fill="#FFFFFF" d="M31.781,62.999c-0.617,2.901-0.698,5.913-3.885,5.527c-0.305,1.121-0.691,2.623-1.034,3.873
			c1.307,0.027,2.51,0.127,3.574,0.013c0.655-0.071,1.836-0.354,2.092-0.599c0.103-0.098,0.175-0.052,0.299-0.148
			c1.386-1.084,1.729-2.581,2.241-4.633c0.819-3.278,1.863-7.987,2.391-10.906h-4.034C33.22,56.798,32.138,61.322,31.781,62.999z"/>
	</g>
</g>
</svg>
