<?xml version="1.0" encoding="utf-8"?>
<!-- Generator: Adobe Illustrator 16.0.3, SVG Export Plug-In . SVG Version: 6.00 Build 0)  -->
<!DOCTYPE svg PUBLIC "-//W3C//DTD SVG 1.1//EN" "http://www.w3.org/Graphics/SVG/1.1/DTD/svg11.dtd">
<svg version="1.1" id="Layer_1" xmlns="http://www.w3.org/2000/svg" xmlns:xlink="http://www.w3.org/1999/xlink" x="0px" y="0px"
	 width="120px" height="120px" viewBox="0 0 120 120" enable-background="new 0 0 120 120" xml:space="preserve">
<g id="layer1" transform="translate(130.53125,-317.84375)">
	<path id="path21" fill="#F6F6F6" d="M-40.602,377.272c3.771,1.32,5.656,3.58,5.656,6.778c0,2.105-0.781,3.775-2.343,5.011
		c-1.56,1.237-3.78,2.004-6.674,2.004s-5.567-0.838-8.033-2.213c0.026-0.73,0.22-1.531,0.573-2.399
		c0.354-0.869,0.773-1.56,1.253-2.063c2.267,1.176,4.237,1.767,5.91,1.767c0.791,0,1.401-0.132,1.827-0.399
		c0.428-0.266,0.641-0.623,0.641-1.072c0-0.844-0.652-1.476-1.958-1.896l-2.341-0.885c-3.542-1.291-5.313-3.395-5.313-6.316
		c0-2.133,0.744-3.824,2.231-5.074c1.487-1.249,3.494-2.325,6.017-2.325c1.246,0,2.62,0.175,4.122,0.526
		c1.503,0.352,2.735,1.218,3.697,1.694c0.058,0.786-0.101,1.649-0.466,2.589c-0.37,0.94-0.822,1.607-1.363,2.001
		c-2.382-1.067-4.363-1.601-5.951-1.601c-0.568,0-0.996,0.126-1.297,0.38c-0.298,0.253-0.443,0.576-0.443,0.969
		c0,0.674,0.537,1.207,1.614,1.6L-40.602,377.272L-40.602,377.272z"/>
	<path id="path23" fill="#F6F6F6" d="M-59.434,377.272c3.77,1.32,5.654,3.58,5.654,6.778c0,2.105-0.783,3.775-2.34,5.011
		c-1.561,1.237-3.783,2.004-6.675,2.004s-5.569-0.838-8.034-2.213c0.026-0.73,0.219-1.531,0.575-2.399
		c0.354-0.869,0.771-1.56,1.252-2.063c2.269,1.176,4.237,1.767,5.911,1.767c0.791,0,1.402-0.132,1.826-0.399
		c0.427-0.266,0.641-0.623,0.641-1.072c0-0.844-0.654-1.476-1.958-1.896l-2.339-0.885c-3.544-1.291-5.314-3.395-5.314-6.316
		c0-2.133,0.743-3.824,2.232-5.074c1.488-1.249,3.492-2.325,6.014-2.325c1.247,0,2.625,0.175,4.125,0.526
		c1.502,0.352,2.733,1.218,3.697,1.694c0.057,0.786-0.102,1.649-0.469,2.589s-0.821,1.607-1.36,2.001
		c-2.383-1.067-4.364-1.601-5.953-1.601c-0.567,0-0.997,0.126-1.297,0.38c-0.296,0.253-0.444,0.576-0.444,0.969
		c0,0.674,0.539,1.207,1.616,1.6L-59.434,377.272L-59.434,377.272z"/>
	<path id="path25" fill="#F6F6F6" d="M-73.167,377.569c0-1.291-0.205-2.484-0.616-3.58c-0.41-1.095-0.999-2.034-1.764-2.821
		c-0.766-0.786-1.693-1.403-2.784-1.853c-1.092-0.448-2.318-1.124-3.678-1.124c-1.616,0-3.026,0.731-4.23,1.293
		c-1.204,0.561-2.196,1.332-2.975,2.315c-0.781,0.984-1.362,2.141-1.745,3.474c-0.382,1.334-0.574,2.787-0.574,4.358
		c0,1.627,0.156,3.131,0.468,4.506c0.312,1.374,0.843,2.565,1.594,3.578c0.752,1.01,1.729,1.796,2.935,2.356
		c1.206,0.56,2.7,0.991,4.485,0.991c3.288,0,6.064-0.951,8.332-2.551c-0.224-1.627-0.804-2.921-1.735-3.875
		c-1.157,0.437-2.182,0.746-3.07,0.938c-0.889,0.188-1.673,0.284-2.351,0.284c-1.354,0-2.331-0.346-2.922-1.043
		c-0.591-0.692-0.915-1.514-0.973-2.762h11.053C-73.353,380.878-73.167,379.282-73.167,377.569z M-84.813,377.861
		c0.085-1.433,0.346-2.965,0.781-3.597c0.437-0.632,1.103-0.948,2.004-0.948c0.927,0,1.625,0.336,2.088,1.009
		c0.464,0.674,0.696,2.032,0.696,3.07l0.001,0.465L-84.813,377.861L-84.813,377.861L-84.813,377.861z"/>
	<path id="path27" fill="#F6F6F6" stroke="#404040" stroke-width="0.5409" stroke-miterlimit="10" d="M-23.284,380.662
		c-1.2,1.051-1.897,2.561-1.897,4.535v7.354c0,2.445-0.752,4.305-2.449,5.583c-1.695,1.276-3.674,1.908-5.93,1.97l-1.338-0.011
		v-3.663c1.18-0.345,1.664-0.746,2.133-1.199c0.851-0.768,1.5-2.019,1.5-3.754v-5.937c0.033-2.021,0.188-3.601,0.923-4.743
		c0.737-1.141,2.173-2.14,4.306-3.002c-2.355-1.079-3.938-2.488-4.745-4.226c-0.474-1.032-0.481-2.424-0.481-4.177v-5.444
		c0-1.798-0.59-3.059-1.313-3.777c-0.47-0.469-1.019-0.845-2.321-1.127v-3.44c1.594,0.017,2.399-0.001,3.326,0
		c1.432-0.012,2.629,0.77,3.67,1.584c1.135,0.892,1.94,2.098,2.414,3.618c0.27,0.877,0.307,1.715,0.307,2.514v6.297
		c0,2.224,0.658,3.877,1.781,4.957c0.631,0.626,1.525,1.198,3.06,1.715v2.845C-21.702,379.511-22.557,380.02-23.284,380.662
		L-23.284,380.662z"/>
	<path id="path29" fill="#F6F6F6" stroke="#404040" stroke-width="0.5409" stroke-miterlimit="10" d="M-107.833,355.605v0.004
		c-0.457-0.002-0.871-0.004-1.201-0.003c-1.43-0.012-2.627,0.77-3.668,1.584c-1.136,0.893-2.109,2.058-2.414,3.618
		c-0.173,0.915-0.136,1.714-0.136,2.514v6.297c0,2.223-0.828,3.875-1.95,4.957c-0.632,0.626-1.982,1.198-3.516,1.715v2.844
		c1.361,0.375,2.67,0.883,3.396,1.527c1.202,1.051,2.069,2.563,2.069,4.536v7.354c0,2.441,0.583,4.303,2.278,5.58
		c1.696,1.275,3.672,1.91,5.93,1.973l1.51-0.012v-3.666c-1.178-0.346-1.833-0.746-2.305-1.197c-0.848-0.771-1.329-2.02-1.329-3.754
		v-5.938c-0.033-2.021-0.358-3.602-1.094-4.743c-0.735-1.141-2.171-2.142-4.307-3.002c2.357-1.08,3.939-2.488,4.746-4.224
		c0.475-1.033,0.655-2.426,0.655-4.177v-5.446c0-1.798,0.417-3.057,1.141-3.777c0.392-0.391,1.09-0.712,2.06-0.973l1.533,0.011
		c0-1.319,0-2.146,0-3.605h-3.398V355.605L-107.833,355.605z"/>
	<path id="path31" fill="#F6F6F6" d="M-93.7,385.439h-1.147c-1.249,0-1.719-0.654-1.719-1.974v-24.229
		c0-1.457-0.42-2.479-0.958-3.069c-0.54-0.588-1.475-0.582-2.806-0.582h-2.593l-0.305-0.006v0.025l-0.002,3.606v25.428
		c0,2.022,0.454,3.502,1.262,4.443c0.809,0.939,2.176,1.409,4.103,1.409c1.332,0,2.849-0.142,4.548-0.423
		c0.086-0.282,0.128-0.893,0.128-1.822C-93.189,387.313-93.36,386.379-93.7,385.439L-93.7,385.439z"/>
</g>
</svg>
