<?xml version="1.0" encoding="utf-8"?>
<!-- Generator: Adobe Illustrator 16.0.3, SVG Export Plug-In . SVG Version: 6.00 Build 0)  -->
<!DOCTYPE svg PUBLIC "-//W3C//DTD SVG 1.1//EN" "http://www.w3.org/Graphics/SVG/1.1/DTD/svg11.dtd">
<svg version="1.1" id="Layer_1" xmlns="http://www.w3.org/2000/svg" xmlns:xlink="http://www.w3.org/1999/xlink" x="0px" y="0px"
	 width="120px" height="120px" viewBox="0 0 120 120" enable-background="new 0 0 120 120" xml:space="preserve">
<path fill="#FFFFFF" d="M42.978,81.785l-2.48,2.48c-0.332,0.33-0.712,0.496-1.142,0.496c-0.431,0-0.811-0.166-1.142-0.496
	L15.091,61.143c-0.33-0.332-0.497-0.712-0.497-1.142c0-0.429,0.167-0.811,0.497-1.142l23.124-23.125
	c0.332-0.331,0.711-0.496,1.142-0.496s0.811,0.166,1.142,0.496l2.48,2.481c0.332,0.331,0.497,0.71,0.497,1.142
	c0,0.43-0.165,0.811-0.497,1.142L23.477,60l19.501,19.501c0.332,0.332,0.497,0.711,0.497,1.141
	C43.475,81.074,43.31,81.453,42.978,81.785z M72.307,28.836L53.797,92.9c-0.132,0.43-0.389,0.752-0.769,0.967
	s-0.769,0.256-1.166,0.125l-3.076-0.846c-0.431-0.131-0.754-0.389-0.968-0.768c-0.215-0.381-0.256-0.787-0.123-1.215L66.205,27.1
	c0.13-0.43,0.387-0.753,0.769-0.967c0.379-0.215,0.77-0.256,1.166-0.124l3.074,0.843c0.433,0.133,0.754,0.389,0.969,0.769
	C72.396,28.001,72.438,28.407,72.307,28.836z M104.908,61.143L81.784,84.266c-0.332,0.33-0.711,0.496-1.142,0.496
	s-0.811-0.166-1.142-0.496l-2.482-2.48c-0.33-0.332-0.495-0.711-0.495-1.143c0-0.43,0.165-0.809,0.495-1.141L96.522,60
	L77.021,40.499c-0.331-0.331-0.496-0.711-0.496-1.142s0.165-0.81,0.496-1.142l2.481-2.481c0.331-0.331,0.712-0.496,1.142-0.496
	s0.811,0.166,1.142,0.496l23.124,23.125c0.33,0.331,0.497,0.712,0.497,1.142C105.404,60.43,105.238,60.811,104.908,61.143z"/>
</svg>
